<svg xmlns="http://www.w3.org/2000/svg" version="1.0" viewBox="0 0 1024 1024"><path d="M235.5 133c-2.2 1.1-5.1 3.6-6.5 5.7-2.3 3.4-2.5 4.7-2.8 17.3-.6 23.2 1.1 25.6 16.7 24.2l9-.8.3 10.9.3 10.8-2.5.6c-1.4.3-6 1.4-10.2 2.4-67.4 16.7-118.3 73.7-126.8 142.3-1.8 13.7-.7 40 2 53.1 12.5 59.4 55 107.9 110.8 126.4 18.9 6.3 27.3 7.5 52.7 7.5 25.8.1 32.5-.8 52-7.1 56.9-18.4 98.5-65.1 111.7-125.6 2-8.9 2.2-13.1 2.2-33.7s-.2-24.8-2.2-33.6c-7.2-33.2-21.9-60.2-45.6-84-17.4-17.3-32.8-27.8-53.6-36.7-8.9-3.8-25.5-8.8-35.2-10.7l-5.8-1.1V179l10.3.6c10 .6 10.3.6 12.5-1.9 2.3-2.4 2.3-2.9 2-19.8-.3-18.8-.6-19.8-6.7-24.5-2.5-1.8-4.8-1.9-41.6-2.2-37.4-.2-39.2-.2-43 1.8m63.8 102.5c5.5.8 14.6 3.1 20.4 5 47.5 15.9 81.8 56.1 89.9 105.4 2 12.3 1.5 37.4-1 48.6-11.9 53.4-54.8 94.9-107.6 104.1-13 2.2-40 1.5-51.6-1.5-12.5-3.1-20-5.9-30.7-11.3-36.1-18.4-61.7-52.5-70.4-93.8-2.2-10.5-2.4-36.9-.4-48 3.1-17.6 11.7-38.3 22.2-53.7 11.1-16 31.3-33.4 49.8-42.8 12-6 28.6-11 42.6-12.8 7.6-1 27.9-.5 36.8.8"/><path d="M272.5 259.5c-2.1 2-2.5 3.4-2.5 8.5s.4 6.5 2.5 8.5c3.4 3.5 7.8 3.3 11.6-.4 2.4-2.4 2.9-3.8 2.9-7.6 0-5.1-2-9.9-4.5-10.9-3.5-1.3-7.6-.6-10 1.9m71.8 26.2c-4.8 3.6-11.3 9.4-45.3 39.7-14.5 12.9-18 15.6-20.6 15.6-5.6 0-13 2.9-17.6 7-10.5 9.2-12 25.8-3.4 37.1 7.1 9.4 20.5 13.2 31.6 9 10-3.8 18-14.4 18-23.9 0-4.2 1.1-5.8 25.8-37.5 14.1-18.1 26.2-34 26.9-35.1 2.3-3.9 1.6-9.5-1.6-12.7-4.1-4-7.7-3.8-13.8.8m-174.4 76.2c-1.7 1.8-2.9 4-2.9 5.6s1.2 3.8 2.9 5.6c2.6 2.5 3.7 2.9 8.6 2.9s6-.4 8.6-2.9c3.7-3.8 3.9-8.2.4-11.6-2-2.1-3.4-2.5-8.5-2.5-5.5 0-6.5.3-9.1 2.9m200.5-.5c-3.5 3-3.9 8.6-.7 11.7 2.2 2.3 9.4 3.6 13.7 2.5 6.7-1.7 8.6-8.8 3.7-13.7-2.5-2.5-3.7-2.9-8.5-2.9-4.3 0-6.1.5-8.2 2.4m-95.7 95.2c-3.4 1.8-4.7 5-4.7 11 0 8.8 8.9 13.6 14.5 7.9 2.1-2 2.5-3.3 2.5-8.8 0-5.3-.4-6.7-2.2-8.5-3.2-2.9-6.8-3.5-10.1-1.6M460 144.1c-13.2 1.2-34 4.8-47.1 8-20.8 5-50.8 15.5-62 21.5-8.1 4.4-10.4 12.1-5.1 17.3 2.9 2.9 24.8 12.1 28.9 12.1 1.3 0 5.2-1.2 8.6-2.6 42.6-18.1 98.5-25 147.4-18.3 75.5 10.3 137.7 44.7 184.1 101.8 3 3.6 6.1 7.2 7 7.8 1.7 1.4 33.1 1.7 40.9.5l4.2-.7-7.1-9.9c-12.2-17.4-21.8-28.6-38.3-45.1-17.1-17.2-28.4-26.7-46-38.7-44.9-30.8-95.7-48.4-155-53.8-12.7-1.2-48-1.1-60.5.1"/><path d="M637.5 285.7c-5.8 1.5-10.3 7.3-10.7 13.9-.1 2.2-.1 79.8 0 172.5.2 164.8.2 168.6 2.1 170.6 1.4 1.5 5 2.6 13.8 4.2 6.5 1.2 12.6 2.5 13.6 2.7 1.6.5 1.7-3.1 1.7-66.5V516h230v353.7l2.3 3.3c3.5 5.3 6.9 7.2 12.5 7.3 6.8.1 12.4-3.5 14.6-9.5 1.5-3.9 1.6-28.2 1.4-289.8l-.3-285.5-2.2-3.1c-3.5-4.8-7.1-6.8-13-6.8-5.8-.1-9.3 1.9-13 7.4-1.9 2.7-2.3 4.7-2.3 10.6v7.4h-56.2c-31 0-83 .3-115.5.7l-59.3.6V304c0-10-1.9-13.8-8.4-16.9-4.1-2-7-2.4-11.1-1.4M773 356.5V385h-56v57h-59v-57h59v-57h56zm115 .5v28h-56v57h-58v-57h58v-56h56zM773 471v28h-56v-56h56zm115 .5V500h-56v-57h56zm-733 41.8c0 5.4 1.6 23.8 3.1 34.3l1.1 8.1 9 .7c5 .3 13.1.6 18 .6 8.6 0 8.8-.1 8.4-2.3-.3-1.2-.7-4.8-1.1-8-.9-9.2-3.5-13.1-12.2-18.5-4.1-2.6-11.7-8-16.9-11.9L155 509z"/><path d="M779.6 539.2c-1.9 1.8-3 4.9-5.1 14.3-2.6 11.3-9.2 32.1-13 41-8.3 19.3-20.5 40.1-34.3 58.5-5.2 6.9-9.6 12.9-9.8 13.5-.2.8 26 17 29.5 18.3.9.3 15.1-18.6 22.4-29.8 16.7-25.9 30.2-56.4 37.2-84 2.1-8.2 6.5-30.8 6.5-33.2 0-.4-6.9-.8-15.4-.8-14.7 0-15.6.1-18 2.2m-659.7 35.1c-5.9 4-5.9 6.3.5 25.5 6.2 18.5 9.6 24.4 15.2 26.8 1.9.8 12.4 2.9 23.4 4.7l19.9 3.2 4.2 10c2.4 5.5 6.9 16.1 10.1 23.5l5.7 13.4-7.2 7.6c-17.5 18-23.1 29.8-27.2 57.4-1.8 12.3-1.9 18.6-.4 25.8 2.5 11.6 9.4 20.5 19.6 25.3 3 1.5 5.7 2.4 5.9 2.2.3-.2 0-4.6-.7-9.8-2.5-21 2.8-44 14.2-61.5 18.6-28.4 51.1-45 84.2-43.1 13.4.8 24 3.6 36.2 9.7 24.7 12.2 42.4 33.2 50 59.5 4.2 14.1 4.6 37.5.9 49.7-.5 1.7 4.4 1.8 94 1.8 52 0 94.6-.2 94.6-.5s-.7-4.7-1.6-9.7c-1.9-10.8-1.4-27.3 1.1-37.8 4.2-17.6 12.9-32.8 26.4-46 10.5-10.2 21.5-17 34.8-21.6 13-4.4 22.4-5.8 35.3-5.1 41.7 2.3 76.7 31 87.1 71.4 3.3 13.1 3.4 34.2.2 47l-.5 2.3h27.8c26 0 28-.1 32-2.1 5-2.4 8.4-7.2 8.4-11.8 0-4.3-3.2-10.3-7.4-13.8l-3.4-2.8-.4-16c-.4-18.1-1.4-21.7-8.4-29.4-4.7-5.3-7.9-6.9-23.4-12.1-14.1-4.7-23.2-9.1-34.5-16.5-17.2-11.4-41.3-22.4-57.5-26.4-7.3-1.8-84.9-17.1-108.3-21.4-4.7-.9-9.2-2.5-11.5-4-3.8-2.5-35.2-32.3-52.1-49.4-7.1-7.3-10.9-10.3-16-12.7l-6.6-3.1h-56c-55.8 0-56 0-63.5 2.3-14.8 4.6-22.2 9.2-81.5 50.4-19.1 13.4-25.9 17-43 23.2-6.6 2.3-12.8 4.6-13.8 5.1-1.5.6-2.6-1.2-7.6-11.6-3.2-6.8-5.7-12.6-5.6-12.7.2-.2 1.8-.8 3.7-1.2 1.8-.5 7.6-2.6 12.8-4.8 5.2-2.1 11.7-4.7 14.3-5.7 8.3-3 10.4-9.4 7.2-21.8-2.7-10.5-7.7-18.1-13.9-21.4-1.8-.9-16.7-3-41.5-5.8-21.2-2.4-45.3-5.3-53.6-6.4-18.5-2.6-18.5-2.6-22.6.2M501.5 635l23 23-31.5.1c-17.3.1-44.5.2-60.5.3l-28.9.1-1.3-4.5c-7.7-25.7-11.1-38.6-10.5-39.1.4-.4 18.3-1.1 39.7-1.7 21.5-.5 40.8-.9 43-1 4-.2 4.3.1 27 22.8m-129.1-11.8c4 13.2 9.6 33.2 9.6 34 0 1.3-73.4 1-74.7-.3-.9-.9.4-2.3 4.9-5.8 20.6-15.9 34.4-26 39.3-29 5.4-3.3 14.5-7 17.2-7.1.7 0 2.4 3.7 3.7 8.2"/><path d="M268 705.5c-15.9 3.2-29.1 10.6-40.6 22.8-8.2 8.7-13.5 17.4-17.1 28.2-2.5 7.3-2.7 9.3-2.7 23.5 0 14.1.3 16.2 2.7 23.5 6.9 20.7 23.8 38.7 44.5 47.6l6.7 2.8-69.3.1c-75.4 0-72.5-.2-77.1 5.6-1.5 1.9-2.1 4.1-2.1 7.9 0 5.8 2.1 9.5 7 12 2.5 1.3 45.2 1.5 347 1.5s344.5-.2 347-1.5c4.9-2.5 7-6.1 7-12.1 0-4.8-.4-5.9-3.4-9.2l-3.4-3.7-68.8-.3-68.8-.2 9.9-5c28.3-13.9 43.6-38.2 43.7-69 0-9.5-.5-13-2.7-20.5-4.2-14.2-8.6-21.6-19.5-32.5-8.1-8.2-10.9-10.3-19-14.3-13.2-6.6-20-8.1-34.5-8.1s-21.3 1.6-34.3 8c-15.6 7.8-29.4 22.6-35.8 38.4-6.6 16.2-7.2 37.2-1.7 53.3 3.9 11.2 8.2 18.2 16.6 27.3 7.7 8.3 17.6 15.3 26.9 19.1 3.5 1.4 6.5 2.7 6.7 2.9s-73.6.4-164 .4H304.5l10-4.9c12-6 19.5-11.8 27-20.8 21.4-25.9 22.3-64.6 2.1-92.7-17.2-23.8-47.3-35.8-75.6-30.1m32.2 36.2c11.5 5.4 20 15.8 23.4 28.8 5.8 21.6-8.5 45.1-31 51.1-28.2 7.5-56.7-18.8-51.8-47.7 2.9-16.6 13.8-29.3 29.7-34.6 2.5-.8 7.6-1.2 13.5-1 8.3.2 10.4.7 16.2 3.4m372.4.3c26.8 13.1 32.5 49.1 10.9 68.8-17.7 16.2-41.9 15.9-58.6-.7-22.8-22.9-13.5-60.5 17.6-70.8 2.5-.8 7.6-1.2 13.6-1 8.6.2 10.3.6 16.5 3.7"/><path d="M274.5 763.5c-4.6 2.5-6.6 4.6-8.6 9-3.5 7.7-1.5 16.3 5.1 21.8 11.9 10 30 1.3 30-14.4 0-5.6-2.5-10.4-7.3-14.3-3.1-2.5-4.9-3.1-10-3.4-4.4-.2-7.1.2-9.2 1.3m372 0c-9 4.9-12.9 14.9-9.1 23.8 2.9 7.1 12.9 12.6 19.9 11.2 9.2-2 14.9-8.4 15.5-17.3.4-6.8-1.6-11.1-7.2-15.6-3-2.5-4.8-3.1-9.9-3.4-4.4-.2-7.1.2-9.2 1.3"/></svg>